<svg xmlns="http://www.w3.org/2000/svg" width="43" height="30" viewBox="0 0 43 30" fill="none">
<path d="M7.48066 14.6838H2.11604C0.947385 14.6838 0 15.5772 0 16.6792V21.7377C0 22.8397 0.947385 23.733 2.11604 23.733H7.48066C8.64932 23.733 9.5967 22.8397 9.5967 21.7377V16.6792C9.5967 15.5772 8.64932 14.6838 7.48066 14.6838Z" fill="#EBEBEB"/>
<path d="M21.6149 7.96721H25.1317V1.98126C25.1317 0.885246 24.1929 0 23.0306 0H12.8229C11.6606 0 10.7218 0.885246 10.7218 1.98126V11.6066C10.7218 12.7026 11.6606 13.5878 12.8229 13.5878H19.1636V10.2717C19.1636 8.99297 20.2589 7.96019 21.6149 7.96019V7.96721Z" fill="#EBEBEB"/>
<path d="M40.0782 7.96729H25.1317V11.6137C25.1317 12.7097 24.1929 13.5949 23.0306 13.5949H19.1636V27.6886C19.1636 28.9673 20.2589 30.0001 21.6149 30.0001H40.0782C41.4342 30.0001 42.5295 28.9673 42.5295 27.6886V10.2788C42.5295 9.00007 41.4342 7.96729 40.0782 7.96729Z" fill="#EBEBEB"/>
<path d="M24.9082 8.17806V11.6137C24.9082 12.5902 24.0663 13.3841 23.0306 13.3841H19.3871V10.2788C19.3871 9.11951 20.3855 8.17806 21.6149 8.17806H24.9082ZM25.1317 7.96729H21.6149C20.2589 7.96729 19.1636 9.00007 19.1636 10.2788V13.5949H23.0306C24.1929 13.5949 25.1317 12.7097 25.1317 11.6137V7.96729Z" fill="#EBEBEB"/>
</svg>